<?xml version="1.0" standalone="no"?>
<!DOCTYPE svg PUBLIC "-//W3C//DTD SVG 20010904//EN"
 "http://www.w3.org/TR/2001/REC-SVG-20010904/DTD/svg10.dtd">
<svg version="1.0" xmlns="http://www.w3.org/2000/svg"
 width="220.000000pt" height="220.000000pt" viewBox="0 0 220.000000 220.000000"
 preserveAspectRatio="xMidYMid meet">
<metadata>
Created by potrace 1.14, written by Peter Selinger 2001-2017
</metadata>
<g transform="translate(0.000000,220.000000) scale(0.100000,-0.100000)"
fill="#000000" stroke="none">
<path d="M875 2111 c-287 -63 -519 -261 -668 -571 -81 -168 -119 -338 -116
-515 l2 -90 -44 -10 c-41 -10 -44 -13 -47 -48 -3 -35 -1 -37 20 -33 94 20 98
19 134 -18 43 -45 69 -48 59 -8 -15 61 -35 200 -35 252 0 161 69 395 159 535
131 204 314 354 506 411 81 25 106 27 255 28 237 1 349 -27 521 -130 168 -101
299 -236 370 -379 62 -127 82 -223 83 -400 0 -154 -6 -195 -50 -340 -47 -153
-162 -344 -203 -337 -12 2 -13 1 -3 -6 10 -7 -6 -26 -59 -75 -39 -37 -75 -67
-80 -67 -4 0 -13 -8 -18 -18 -9 -16 -5 -18 32 -17 23 1 51 5 62 8 22 7 37 -6
109 -95 23 -29 36 -54 32 -63 -3 -9 -2 -14 3 -11 11 7 34 -20 60 -72 20 -39
24 -42 61 -42 34 0 38 3 32 18 -23 55 -68 128 -124 202 -34 46 -67 89 -72 96
-7 9 0 22 23 46 34 34 121 151 121 162 0 4 10 23 23 44 65 105 121 294 138
465 31 316 -54 562 -263 769 -72 72 -99 93 -197 156 -52 33 -229 117 -276 130
-153 43 -408 53 -550 23z"/>
<path d="M483 1353 c-28 -6 -100 -84 -119 -129 -22 -53 -20 -161 3 -193 31
-40 64 -55 106 -47 96 18 176 167 147 274 -20 75 -70 109 -137 95z m95 -144
c3 -28 -30 -65 -47 -54 -15 9 -14 58 1 73 19 19 43 10 46 -19z"/>
<path d="M396 1324 c-8 -22 -4 -25 11 -9 7 8 9 16 4 19 -5 3 -12 -1 -15 -10z"/>
<path d="M900 1010 c-8 -5 -10 -10 -5 -10 6 0 17 5 25 10 8 5 11 10 5 10 -5 0
-17 -5 -25 -10z"/>
<path d="M905 989 c-16 -5 -52 -21 -80 -36 -48 -27 -56 -28 -169 -26 -101 1
-125 -1 -158 -18 -66 -34 -75 -106 -24 -188 15 -23 24 -47 20 -54 -4 -7 -3 -9
1 -4 5 4 38 -22 74 -57 108 -103 246 -183 376 -216 97 -25 257 -43 308 -35
153 24 237 59 262 111 20 42 19 60 -5 99 -20 33 -80 85 -98 85 -13 0 -44 37
-35 42 4 3 3 4 -3 2 -24 -5 -57 31 -84 92 -61 135 -173 215 -300 213 -30 0
-68 -5 -85 -10z"/>
<path d="M375 960 c3 -5 8 -10 11 -10 2 0 4 5 4 10 0 6 -5 10 -11 10 -5 0 -7
-4 -4 -10z"/>
<path d="M1656 928 c2 -3 -9 -16 -24 -27 -16 -11 -39 -42 -52 -70 -17 -34 -28
-47 -39 -44 -11 3 -12 2 -4 -4 7 -5 12 -35 12 -76 0 -38 5 -75 11 -82 7 -8 8
-20 4 -26 -4 -7 -3 -9 3 -6 10 7 37 -16 29 -24 -2 -2 16 -5 41 -7 36 -2 54 3
85 24 51 36 70 65 92 140 16 53 17 69 6 113 -17 71 -55 102 -120 99 -26 -2
-46 -6 -44 -10z m34 -106 c0 -19 -29 -52 -45 -52 -30 0 -23 72 7 83 17 6 38
-11 38 -31z"/>
<path d="M105 830 c-3 -5 -1 -10 4 -10 6 0 11 5 11 10 0 6 -2 10 -4 10 -3 0
-8 -4 -11 -10z"/>
<path d="M0 816 c0 -2 7 -6 15 -10 8 -3 15 -1 15 4 0 6 -7 10 -15 10 -8 0 -15
-2 -15 -4z"/>
<path d="M1310 765 c0 -8 4 -15 10 -15 5 0 7 7 4 15 -4 8 -8 15 -10 15 -2 0
-4 -7 -4 -15z"/>
<path d="M1835 719 c-4 -6 -5 -12 -2 -15 2 -3 7 2 10 11 7 17 1 20 -8 4z"/>
<path d="M1475 650 c3 -5 8 -10 11 -10 2 0 4 5 4 10 0 6 -5 10 -11 10 -5 0 -7
-4 -4 -10z"/>
<path d="M1535 570 c-3 -5 -1 -10 4 -10 6 0 11 5 11 10 0 6 -2 10 -4 10 -3 0
-8 -4 -11 -10z"/>
<path d="M1870 90 c0 -5 5 -10 11 -10 5 0 7 5 4 10 -3 6 -8 10 -11 10 -2 0 -4
-4 -4 -10z"/>
</g>
</svg>
